PathFileType	4	(X/Y/Z)	Patient4_TMGait_0pt2_02_right_17.trc.trc
DataRate	CameraRate	NumFrames	NumMarkers	Units	OrigDataRate	OrigDataStartFrame	OrigNumFrames
45.901639344262	45.901639344262	4	33	mm	45.901639344262	106	       141
Frame#	Time	R.Midfoot.Superior			Sacral			L.Shoulder			Chest			R.Shoulder			Neck			R.ASIS			L.ASIS			R.Thigh.Superior			R.Thigh.Lateral			R.Thigh.Inferior			R.Patella			L.Thigh.Superior			L.Thigh.Lateral			L.Thigh.Inferior			L.Patella			L.Shank.Superior			L.Shank.Lateral			L.Shank.Inferior			R.Shank.Superior			R.Shank.Lateral			R.Shank.Inferior			R.Heel			R.Midfoot.Lateral			R.Toe			L.Heel			L.Midfoot.Lateral			L.Midfoot.Superior			L.Toe			L.Elbow			L.Wrist			R.Elbow			R.Wrist			
		X1	Y1	Z1	X2	Y2	Z2	X3	Y3	Z3	X4	Y4	Z4	X5	Y5	Z5	X6	Y6	Z6	X7	Y7	Z7	X8	Y8	Z8	X9	Y9	Z9	X10	Y10	Z10	X11	Y11	Z11	X12	Y12	Z12	X13	Y13	Z13	X14	Y14	Z14	X15	Y15	Z15	X16	Y16	Z16	X17	Y17	Z17	X18	Y18	Z18	X19	Y19	Z19	X20	Y20	Z20	X21	Y21	Z21	X22	Y22	Z22	X23	Y23	Z23	X24	Y24	Z24	X25	Y25	Z25	X26	Y26	Z26	X27	Y27	Z27	X28	Y28	Z28	X29	Y29	Z29	X30	Y30	Z30	X31	Y31	Z31	X32	Y32	Z32	X33	Y33	Z33	

106	40.077500000000	1003.351312034446	149.892805146243	598.897218735119	892.921191093489	995.160712375431	388.065353420326	1092.750079254145	1417.019797155822	198.358592619924	1180.520401512294	1352.552170355894	368.739933083628	1087.487741210297	1434.101747777140	533.365427338697	1062.951542092847	1484.839918498185	352.285632500380	1119.378124927514	936.071957306807	515.222084421803	1116.053209781092	947.336528742382	239.427647937519	1196.910917625809	759.190406319681	492.912960678535	1150.907998492327	644.163108006421	574.437234166659	1237.871301682776	595.202467112999	497.311612717636	1250.926941754717	484.992564779282	528.980773130970	1171.622192360732	741.709224817236	281.492004178063	1093.637933616050	614.076376068919	231.385016458078	1181.858962004638	547.664542900270	302.687484115610	1185.934558467049	474.311277431444	315.919247113666	1145.763413082735	399.963833362866	313.630128105756	1042.605047606216	296.026781912670	265.633522297141	1071.257735938745	183.833059943965	344.306457855893	1173.616571925662	413.578140035568	544.483486038275	1053.450582806768	381.234197114400	612.241846186070	1036.682499349817	267.902770289592	572.825940454652	833.553750578047	206.269235171816	556.247106737832	893.857862006263	150.395944969161	631.959994141998	1068.794884367247	38.975051318150	629.048265610040	923.544490828542	40.289230889606	391.626148180435	996.343397422236	36.516594956508	310.267242909523	1081.420908447570	95.754853604354	336.210753524524	1208.307291210175	40.502961578568	304.393610766929	1186.290782828593	1083.828413725551	72.326319525635	1397.125539787649	930.881346043592	105.920805747050	961.295851737761	1115.215011565732	660.116617852548	946.657910573594	853.878926273894	682.807468246506	
107	40.099285714286	1020.708561926832	148.403261703411	598.235162241878	891.541084448684	997.032202214311	384.180936890203	1094.992780102202	1419.038863214107	198.090701145392	1178.643181457518	1355.013532825453	370.555718055958	1081.484350849782	1436.687751761674	532.753752459834	1061.266000719946	1486.862861444477	351.316222714158	1115.824174170889	938.743600556930	515.721672250646	1117.339739110916	948.962869242230	239.752921894052	1195.512750909298	763.828261374899	493.176314170649	1150.947114513728	648.065881473121	574.472037732576	1238.772280898568	600.405495670998	497.728652720729	1254.096716012877	491.126508462145	529.374379469397	1169.159176408500	741.456406801948	281.591553602478	1089.371362694183	615.044862661030	230.674936533133	1175.797536123079	547.465117229038	302.533862827666	1178.779399969336	474.698322434789	315.931157346138	1139.144809418857	400.677178630734	313.246158223406	1036.737204285226	296.109145905013	265.010888605644	1065.937048453121	184.177246687130	344.037659620794	1179.383966492301	417.606866143088	544.678669669653	1060.832244897519	380.609850752508	612.182028993749	1048.776460734173	266.976470137961	572.649261291864	848.951204084214	196.631259434664	556.015000487607	911.748913856749	143.494006713868	631.294062513264	1090.960969502288	40.465413092149	627.732372689925	919.003088722464	40.177164982492	391.544818307363	991.849618036193	36.418938285782	310.134900042428	1076.890283071497	95.745145329414	336.058337965969	1203.844977390824	40.601644254773	304.418174671523	1194.224335469710	1088.345030124985	71.726046405066	1413.212973630426	947.708622862383	106.167341225777	943.432322623035	1123.222173127856	657.176987032822	922.179733909509	862.779223808347	679.959459425417	
108	40.121071428571	1040.079264270531	145.826851415280	598.550567237893	890.226587010022	999.316680953780	380.546149235975	1097.223952752755	1421.358452418135	198.159004522298	1176.773887176894	1357.740682578199	372.558817024889	1075.675087384733	1439.578455524928	532.280979647570	1059.637344132854	1489.184998120335	350.603140999323	1112.146050071173	941.687023528018	516.544106861918	1118.611420065294	950.798210814307	240.486014819477	1193.226388460122	768.115944794720	494.079962060668	1149.438281612036	651.861950879854	575.084233509918	1237.938425050621	605.164698656904	498.840844836741	1255.394665744180	497.269593457263	530.366173446101	1166.232657582075	741.343246710600	282.085054180661	1084.462538946186	616.342585400543	230.094437089132	1168.913025948609	547.429211175190	302.475974406018	1170.659955914172	475.309045232394	315.956756046537	1131.777442866006	401.687965683314	312.821361967616	1030.300085078983	296.307639853227	264.406644732772	1060.347166491293	184.676901276946	343.751642417448	1184.000880074577	421.537097833957	545.559529947997	1067.897123876002	378.849175402559	613.073009624441	1061.640663170161	265.044480718744	573.396000623513	866.338842517969	184.121140346219	557.020449290826	932.076225583980	134.485917682985	631.760038799279	1116.035587823704	42.210921145335	627.265139328559	914.458974867210	40.061019198397	391.482129567832	987.346895015993	36.323714691375	310.016683400804	1072.350478703028	95.750190232325	335.901035036468	1199.372777425786	40.715279714563	304.449580738615	1201.508454603267	1092.971695660509	71.749016944004	1427.842849089958	965.045710184149	106.952632347481	927.565150436147	1130.989495671377	653.851670523159	901.269336334809	871.319429632675	676.374990422874	
109	40.142857142857	1061.103051346771	142.517241268012	599.848935429018	888.974290438049	1001.817974690223	377.202673716661	1099.407992241552	1423.800811518786	198.543400515987	1174.943333565751	1360.538258614574	374.709158568514	1070.138852269091	1442.563023791883	531.958929386939	1058.092394513423	1491.629441655059	350.156147857775	1108.403751186675	944.711491932617	517.643826189330	1119.821986674428	952.684242266424	241.576250687117	1190.152887671022	771.834143670184	495.538242311088	1146.508456456199	655.339550757942	576.216363731156	1235.483129014457	609.237052029725	500.543551161192	1254.909666088890	503.155522558038	531.844284662801	1162.951794333672	741.302919234074	282.916121048822	1079.104873654085	617.850989959305	229.623463841211	1161.459056518737	547.498023917372	302.485435302482	1161.869676100622	476.055860055809	315.967376918458	1123.911713278438	402.890520656631	312.348857656745	1023.470674736011	296.581486438156	263.820269640160	1054.580220640716	185.276914044620	343.450996590650	1187.483551763219	425.225535255568	547.044545638447	1074.693873062466	376.077453624203	614.868770891016	1075.113587437345	262.332092363508	575.032358977035	885.588372752728	169.461410083401	559.255250702239	954.543704206338	124.030909896617	633.380405207235	1143.346033530715	44.371523768198	627.715985875507	909.921921023592	39.944106763705	391.438262891708	982.841929621928	36.231777786092	309.914151190798	1067.809079718656	95.763779033901	335.747142938360	1194.896340768143	40.837155172097	304.486072904682	1208.204986569830	1097.545132217719	72.326628497008	1441.041703628203	982.620689858986	108.253127776307	913.776035700289	1138.125403874618	650.241928532309	883.740367532762	879.012725909107	672.204598651351	
